HIERARCHY
ROOT Hips
{
	OFFSET -2.628224 105.513229 -1.111724
	CHANNELS 6 Xposition Yposition Zposition Xrotation Yrotation Zrotation
	JOINT Chest
	{
		OFFSET 0.021881 13.551399 1.585329
		CHANNELS 3 Xrotation Yrotation Zrotation
		JOINT Chest2
		{
			OFFSET -0.989131 21.321053 1.871037
			CHANNELS 3 Xrotation Yrotation Zrotation
			JOINT Chest3
			{
				OFFSET -0.554571 14.914124 0.285336
				CHANNELS 3 Xrotation Yrotation Zrotation
				JOINT Neck
				{
					OFFSET 0.168294 17.213821 1.507306
					CHANNELS 3 Xrotation Yrotation Zrotation
					JOINT Head
					{
						OFFSET -0.493673 10.402740 1.169199
						CHANNELS 3 Xrotation Yrotation Zrotation
						End Site
						{
							OFFSET -0.489187 10.410843 1.096709
						}
					}
				}
				JOINT LeftCollar
				{
					OFFSET 4.463901 12.930344 3.832017
					CHANNELS 3 Xrotation Yrotation Zrotation
					JOINT LeftUpArm
					{
						OFFSET 14.422139 -5.771408 -8.197087
						CHANNELS 3 Xrotation Yrotation Zrotation
						JOINT LeftLowArm
						{
							OFFSET 3.804226 -33.526230 1.117473
							CHANNELS 3 Xrotation Yrotation Zrotation
							JOINT LeftHand
							{
								OFFSET -2.267492 -27.914139 10.798457
								CHANNELS 3 Xrotation Yrotation Zrotation
								End Site
								{
									OFFSET -0.495566 -6.100800 2.360060
								}
							}
						}
					}
				}
				JOINT RightCollar
				{
					OFFSET -3.943600 12.978699 4.220215
					CHANNELS 3 Xrotation Yrotation Zrotation
					JOINT RightUpArm
					{
						OFFSET -14.110788 -6.507065 -8.187794
						CHANNELS 3 Xrotation Yrotation Zrotation
						JOINT RightLowArm
						{
							OFFSET -5.017530 -33.380951 -0.520846
							CHANNELS 3 Xrotation Yrotation Zrotation
							JOINT RightHand
							{
								OFFSET 0.262606 -28.095833 10.559833
								CHANNELS 3 Xrotation Yrotation Zrotation
								End Site
								{
									OFFSET 0.057396 -6.140625 2.307947
								}
							}
						}
					}
				}
			}
		}
	}
	JOINT LeftUpLeg
	{
		OFFSET 10.010271 -0.069824 0.456889
		CHANNELS 3 Xrotation Yrotation Zrotation
		JOINT LeftLowLeg
		{
			OFFSET 4.398479 -47.079102 -2.863716
			CHANNELS 3 Xrotation Yrotation Zrotation
			JOINT LeftFoot
			{
				OFFSET 0.925689 -43.452709 -10.562822
				CHANNELS 3 Xrotation Yrotation Zrotation
				JOINT LeftToe
				{
					OFFSET -1.372205 -16.155668 17.224140
					CHANNELS 3 Xrotation Yrotation Zrotation
					End Site
					{
						OFFSET -0.404102 -1.572452 23.599216
					}
				}
			}
		}
	}
	JOINT RightUpLeg
	{
		OFFSET -10.010275 0.069626 -0.456912
		CHANNELS 3 Xrotation Yrotation Zrotation
		JOINT RightLowLeg
		{
			OFFSET -0.351155 -47.229458 -3.642469
			CHANNELS 3 Xrotation Yrotation Zrotation
			JOINT RightFoot
			{
				OFFSET 1.438408 -42.506577 -13.845639
				CHANNELS 3 Xrotation Yrotation Zrotation
				JOINT RightToe
				{
					OFFSET -2.140429 -17.819754 15.408820
					CHANNELS 3 Xrotation Yrotation Zrotation
					End Site
					{
						OFFSET -4.993320 -3.970631 22.778431
					}
				}
			}
		}
	}
}
MOTION
Frames: 7
Frame Time: 0.033333
-2.628224 105.513229 -1.111723 0.000000 0.000000 -0.000000 -0.000001 0.000000 0.000000 0.000001 0.000000 0.000000 0.000001 -0.000000 0.000000 -0.000000 0.000000 -0.000000 0.000000 0.000000 -0.000000 -0.000000 0.000001 -0.000000 -0.000001 -0.000001 -0.000001 -0.000000 -0.000002 -0.000000 -0.000000 0.000002 -0.000002 -0.000002 0.000000 0.000002 -0.000001 -0.000001 0.000001 0.000004 -0.000000 -0.000000 -0.000000 0.000000 -0.000000 -0.000000 0.000000 -0.000000 0.000000 -0.000000 -0.000000 0.000000 -0.000000 -0.000000 0.000000 -0.000000 -0.000001 -0.000000 -0.000001 -0.000000 0.000002 0.000000 0.000000 0.000000 -0.000002 -0.000001 0.000000 -0.000002 -0.000001 
-2.629823 105.520874 -1.112966 1.187793 1.165355 -0.008174 -0.990410 -0.052106 0.320666 -0.686191 -0.193678 0.295308 0.725893 -1.798770 -0.604454 -1.464626 0.571046 -0.393615 -0.000001 -0.000000 -0.000000 0.031351 1.032578 0.066904 -0.264580 -0.460483 -0.113606 0.308126 -0.269124 0.259605 -0.000001 0.000002 -0.000001 0.407893 2.493790 -0.281938 -0.393764 0.511849 0.352507 -0.545071 0.068195 -1.273316 0.000002 -0.000002 0.000001 -0.978594 -0.135930 0.167558 -0.130415 -0.078323 0.003847 0.133495 -1.084563 -0.474969 -0.000000 0.000000 -0.000001 -0.972314 0.080950 0.068408 -0.334639 -0.076152 0.166373 -0.692338 -0.472431 -0.297946 0.000001 -0.000001 -0.000001 
-2.634605 105.525078 -1.112954 0.346103 0.618899 0.106638 -0.023854 -0.047869 0.208375 -0.252885 -0.023935 0.065010 0.248109 -0.706421 -0.294916 -0.626915 0.354141 -0.245391 -0.000000 0.000000 -0.000000 0.059035 0.197806 0.016726 -0.303330 -0.376908 -0.179071 -0.373258 -0.187759 0.295457 -0.000000 0.000004 -0.000002 0.146892 0.982563 -0.279577 -0.426119 0.382361 0.113154 -0.324764 -0.110049 -0.999107 0.000002 0.000000 -0.000000 -0.157768 -0.113565 0.127255 -0.017717 -0.116108 -0.178089 0.212494 -0.595964 -0.279916 0.000000 -0.000000 -0.000001 0.136290 0.050475 -0.027190 -0.375843 0.006773 0.040924 -0.240001 -0.259201 -0.098514 -0.000001 -0.000001 -0.000001 
-2.636416 105.549088 -1.118752 -0.522537 0.603050 0.265755 1.198935 -0.052385 0.185167 -0.775612 0.044641 -0.046212 0.298802 -0.290368 -0.161834 -0.127132 0.383379 -0.272415 -0.000000 0.000000 -0.000000 -0.023130 -0.572766 0.036280 -0.335542 -0.044182 -0.267788 -0.660430 0.210134 0.073715 -0.000002 0.000002 -0.000002 -0.115341 0.458099 -0.432555 -0.298425 -0.142523 -0.072696 -0.427331 -0.585526 -0.999337 0.000002 0.000000 -0.000001 0.358775 -0.153360 0.026419 0.638840 -0.231502 -0.181379 -0.558589 -0.970422 -0.460414 -0.000000 0.000000 -0.000001 0.857850 0.037654 -0.176867 -0.198798 0.111253 0.038609 0.017219 -0.306664 0.033264 -0.000000 -0.000002 -0.000001 
-2.637803 105.578758 -1.125328 -0.464999 0.633591 0.496318 1.077227 -0.038770 0.135161 -0.721062 0.127753 -0.159548 0.344465 -0.135565 -0.086593 0.129708 0.486690 -0.480839 -0.000000 0.000000 0.000000 -0.106026 -0.237410 -0.105194 -0.591273 -0.151760 -0.145760 -0.233221 0.340365 -0.297171 -0.000004 -0.000001 -0.000001 -0.178702 0.316799 -0.511566 -0.030373 -0.389530 -0.242757 -0.560352 -0.783978 -1.508540 0.000000 -0.000001 0.000001 0.260789 -0.186068 -0.154638 0.694212 -0.348406 -0.246916 -0.697569 -1.232885 -0.615938 -0.000001 0.000000 0.000000 1.303634 0.076623 -0.452002 -1.057563 0.069328 0.050739 0.099623 -0.404820 0.025128 0.000002 -0.000003 -0.000001 
-2.632636 105.611961 -1.126850 -0.705828 0.776460 0.615517 1.077269 -0.043437 0.281557 -0.936829 0.157058 -0.188187 0.630497 -0.104098 -0.195008 0.184545 0.447379 -0.506211 -0.000000 -0.000000 -0.000000 -0.096333 -0.637745 -0.241796 -0.788870 -0.246504 -0.170759 -0.011621 0.393354 -0.043732 -0.000004 0.000004 -0.000002 -0.201015 0.444302 -0.731072 -0.103975 -0.365877 -0.177849 -0.628270 -0.888800 -2.056309 0.000002 -0.000001 0.000002 0.325032 -0.185690 -0.250295 0.761971 -0.373279 -0.322136 -0.791205 -1.278388 -0.660335 -0.000001 0.000000 0.000000 1.590940 0.102465 -0.610795 -1.431548 0.015717 0.101638 0.342045 -0.519914 0.013174 0.000001 0.000000 -0.000002 
-2.623549 105.646629 -1.122129 0.745152 1.640654 0.773514 -0.584928 -0.042039 0.497355 0.004965 -0.005251 0.052021 0.243644 -1.624533 -0.701686 -0.941600 1.220627 -1.052874 -0.000001 0.000000 0.000000 -0.303453 0.252712 -0.413397 -1.257614 -0.442456 -0.006292 0.882464 0.834660 -0.239301 -0.000000 0.000006 -0.000001 -0.048558 2.849417 -0.803285 -0.485825 -0.247286 -0.034117 -0.791653 -1.569598 -3.327851 0.000007 -0.000001 0.000001 -1.448096 -0.357733 -0.472720 0.896935 -0.465548 -0.274016 -0.210549 -1.794722 -0.896591 -0.000000 0.000000 0.000001 0.174336 0.239572 -0.761138 -1.494112 0.134457 0.192972 -0.705442 -0.652470 -0.097059 -0.000000 0.000001 0.000001 
